<svg width="78" height="78" viewBox="0 0 78 78" fill="none" xmlns="http://www.w3.org/2000/svg">
<g filter="url(#filter0_d_13_86)">
<mask id="path-1-outside-1_13_86" maskUnits="userSpaceOnUse" x="4" y="0" width="70" height="70" fill="black">
<rect fill="white" x="4" width="70" height="70"/>
<path fill-rule="evenodd" clip-rule="evenodd" d="M16.1262 12.1191L39 2.64444L61.8738 12.1191L71.3514 35L61.8738 57.8809L39 67.3556L16.1262 57.8809L6.64858 35L16.1262 12.1191ZM39 2L62.3345 11.6655L72 35L62.3345 58.3345L39 68L15.6655 58.3345L6 35L15.6655 11.6655L39 2ZM34.5672 28.4166C33.948 28.2882 33.1848 28.224 32.2776 28.224C30.7944 28.224 29.4552 28.5094 28.26 29.0802C27.0792 29.651 26.1504 30.4573 25.4736 31.499C24.7968 32.5265 24.4584 33.7109 24.4584 35.0523C24.4584 36.4365 24.7896 37.6638 25.452 38.7341C26.1144 39.8043 27.036 40.6391 28.2168 41.2385C29.412 41.8236 30.7656 42.1161 32.2776 42.1161C31.6296 42.2588 33.1272 42.1161 32.2776 42.1161C32.94 41.9734 35.892 41.5096 36.6408 41.1529C36.7272 41.0958 36.7848 41.0458 36.8136 41.003C36.8424 40.9602 36.864 40.8532 36.8784 40.6819L37.0944 38.3274C37.0944 38.2845 37.044 38.2631 36.9432 38.2631C36.8712 38.2631 36.8352 38.2774 36.8352 38.3059C36.4464 39.4761 35.8848 40.3466 35.1504 40.9174C34.416 41.4882 33.4584 41.7736 32.2776 41.7736C31.1688 41.7736 30.1392 41.4739 29.1888 40.8746C28.2528 40.2752 27.504 39.4618 26.9424 38.4344C26.3952 37.3926 26.1216 36.251 26.1216 35.0095C26.1216 33.7109 26.3736 32.5764 26.8776 31.6061C27.3816 30.6214 28.0944 29.8651 29.016 29.3371C29.9376 28.8091 31.0032 28.5451 32.2128 28.5451C34.5168 28.5451 36 29.7366 36.6624 32.1198C36.6768 32.1626 36.72 32.184 36.792 32.184C36.8784 32.1697 36.9216 32.1412 36.9216 32.0984L36.6624 29.5511C36.6336 29.3799 36.612 29.2729 36.5976 29.2301C36.5832 29.1872 36.5256 29.1373 36.4248 29.0802C35.8056 28.7663 35.1864 28.5451 34.5672 28.4166ZM53.8678 41.7094C53.8678 41.6238 53.8462 41.581 53.803 41.581C53.2558 41.581 52.8526 41.5453 52.5934 41.4739C52.3342 41.4026 52.1542 41.267 52.0534 41.0672C51.967 40.8532 51.9238 40.5321 51.9238 40.104V30.1933C51.9238 29.7652 51.967 29.4512 52.0534 29.2515C52.1542 29.0517 52.3342 28.9161 52.5934 28.8448C52.8526 28.7591 53.2558 28.7163 53.803 28.7163C53.8462 28.7163 53.8678 28.6735 53.8678 28.5879C53.8678 28.5023 53.8462 28.4595 53.803 28.4595L52.7446 28.4809C52.1398 28.5094 51.643 28.5237 51.2542 28.5237C50.8222 28.5237 50.2894 28.5094 49.6558 28.4809L48.6406 28.4595C48.5974 28.4595 48.5758 28.5023 48.5758 28.5879C48.5758 28.6735 48.5974 28.7163 48.6406 28.7163C49.2022 28.7163 49.6126 28.7591 49.8718 28.8448C50.131 28.9304 50.3038 29.0802 50.3902 29.2943C50.491 29.4941 50.5414 29.808 50.5414 30.2361V34.6456H42.247V30.2361C42.247 29.808 42.2902 29.4941 42.3766 29.2943C42.4774 29.0802 42.6574 28.9304 42.9166 28.8448C43.1902 28.7591 43.6006 28.7163 44.1478 28.7163C44.1766 28.7163 44.191 28.6735 44.191 28.5879C44.191 28.5023 44.1766 28.4595 44.1478 28.4595L43.111 28.4809C42.4774 28.5094 41.9518 28.5237 41.5342 28.5237C41.1742 28.5237 40.6918 28.5094 40.087 28.4809L38.9854 28.4595C38.9566 28.4595 38.9422 28.5023 38.9422 28.5879C38.9422 28.6735 38.9566 28.7163 38.9854 28.7163C39.5326 28.7163 39.9358 28.7591 40.195 28.8448C40.4542 28.9161 40.627 29.0517 40.7134 29.2515C40.8142 29.4512 40.8646 29.7652 40.8646 30.1933V40.104C40.8646 40.5321 40.8142 40.8532 40.7134 41.0672C40.627 41.267 40.447 41.4026 40.1734 41.4739C39.9142 41.5453 39.511 41.581 38.9638 41.581C38.935 41.581 38.9206 41.6238 38.9206 41.7094C38.9206 41.795 38.935 41.8378 38.9638 41.8378C39.4246 41.8378 39.7846 41.8307 40.0438 41.8164L41.5342 41.795L43.0894 41.8164C43.3486 41.8307 43.7014 41.8378 44.1478 41.8378C44.1766 41.8378 44.191 41.795 44.191 41.7094C44.191 41.6238 44.1766 41.581 44.1478 41.581C43.5862 41.581 43.1758 41.5453 42.9166 41.4739C42.6574 41.4026 42.4774 41.267 42.3766 41.0672C42.2902 40.8532 42.247 40.5321 42.247 40.104V35.0951H50.5414V40.104C50.5414 40.5321 50.491 40.8532 50.3902 41.0672C50.3038 41.267 50.131 41.4026 49.8718 41.4739C49.6126 41.5453 49.2022 41.581 48.6406 41.581C48.5974 41.581 48.5758 41.6238 48.5758 41.7094C48.5758 41.795 48.5974 41.8378 48.6406 41.8378C49.0726 41.8378 49.411 41.8307 49.6558 41.8164L51.2542 41.795L52.7446 41.8164C53.0038 41.8307 53.3566 41.8378 53.803 41.8378C53.8462 41.8378 53.8678 41.795 53.8678 41.7094Z"/>
</mask>
<path fill-rule="evenodd" clip-rule="evenodd" d="M16.1262 12.1191L39 2.64444L61.8738 12.1191L71.3514 35L61.8738 57.8809L39 67.3556L16.1262 57.8809L6.64858 35L16.1262 12.1191ZM39 2L62.3345 11.6655L72 35L62.3345 58.3345L39 68L15.6655 58.3345L6 35L15.6655 11.6655L39 2ZM34.5672 28.4166C33.948 28.2882 33.1848 28.224 32.2776 28.224C30.7944 28.224 29.4552 28.5094 28.26 29.0802C27.0792 29.651 26.1504 30.4573 25.4736 31.499C24.7968 32.5265 24.4584 33.7109 24.4584 35.0523C24.4584 36.4365 24.7896 37.6638 25.452 38.7341C26.1144 39.8043 27.036 40.6391 28.2168 41.2385C29.412 41.8236 30.7656 42.1161 32.2776 42.1161C31.6296 42.2588 33.1272 42.1161 32.2776 42.1161C32.94 41.9734 35.892 41.5096 36.6408 41.1529C36.7272 41.0958 36.7848 41.0458 36.8136 41.003C36.8424 40.9602 36.864 40.8532 36.8784 40.6819L37.0944 38.3274C37.0944 38.2845 37.044 38.2631 36.9432 38.2631C36.8712 38.2631 36.8352 38.2774 36.8352 38.3059C36.4464 39.4761 35.8848 40.3466 35.1504 40.9174C34.416 41.4882 33.4584 41.7736 32.2776 41.7736C31.1688 41.7736 30.1392 41.4739 29.1888 40.8746C28.2528 40.2752 27.504 39.4618 26.9424 38.4344C26.3952 37.3926 26.1216 36.251 26.1216 35.0095C26.1216 33.7109 26.3736 32.5764 26.8776 31.6061C27.3816 30.6214 28.0944 29.8651 29.016 29.3371C29.9376 28.8091 31.0032 28.5451 32.2128 28.5451C34.5168 28.5451 36 29.7366 36.6624 32.1198C36.6768 32.1626 36.72 32.184 36.792 32.184C36.8784 32.1697 36.9216 32.1412 36.9216 32.0984L36.6624 29.5511C36.6336 29.3799 36.612 29.2729 36.5976 29.2301C36.5832 29.1872 36.5256 29.1373 36.4248 29.0802C35.8056 28.7663 35.1864 28.5451 34.5672 28.4166ZM53.8678 41.7094C53.8678 41.6238 53.8462 41.581 53.803 41.581C53.2558 41.581 52.8526 41.5453 52.5934 41.4739C52.3342 41.4026 52.1542 41.267 52.0534 41.0672C51.967 40.8532 51.9238 40.5321 51.9238 40.104V30.1933C51.9238 29.7652 51.967 29.4512 52.0534 29.2515C52.1542 29.0517 52.3342 28.9161 52.5934 28.8448C52.8526 28.7591 53.2558 28.7163 53.803 28.7163C53.8462 28.7163 53.8678 28.6735 53.8678 28.5879C53.8678 28.5023 53.8462 28.4595 53.803 28.4595L52.7446 28.4809C52.1398 28.5094 51.643 28.5237 51.2542 28.5237C50.8222 28.5237 50.2894 28.5094 49.6558 28.4809L48.6406 28.4595C48.5974 28.4595 48.5758 28.5023 48.5758 28.5879C48.5758 28.6735 48.5974 28.7163 48.6406 28.7163C49.2022 28.7163 49.6126 28.7591 49.8718 28.8448C50.131 28.9304 50.3038 29.0802 50.3902 29.2943C50.491 29.4941 50.5414 29.808 50.5414 30.2361V34.6456H42.247V30.2361C42.247 29.808 42.2902 29.4941 42.3766 29.2943C42.4774 29.0802 42.6574 28.9304 42.9166 28.8448C43.1902 28.7591 43.6006 28.7163 44.1478 28.7163C44.1766 28.7163 44.191 28.6735 44.191 28.5879C44.191 28.5023 44.1766 28.4595 44.1478 28.4595L43.111 28.4809C42.4774 28.5094 41.9518 28.5237 41.5342 28.5237C41.1742 28.5237 40.6918 28.5094 40.087 28.4809L38.9854 28.4595C38.9566 28.4595 38.9422 28.5023 38.9422 28.5879C38.9422 28.6735 38.9566 28.7163 38.9854 28.7163C39.5326 28.7163 39.9358 28.7591 40.195 28.8448C40.4542 28.9161 40.627 29.0517 40.7134 29.2515C40.8142 29.4512 40.8646 29.7652 40.8646 30.1933V40.104C40.8646 40.5321 40.8142 40.8532 40.7134 41.0672C40.627 41.267 40.447 41.4026 40.1734 41.4739C39.9142 41.5453 39.511 41.581 38.9638 41.581C38.935 41.581 38.9206 41.6238 38.9206 41.7094C38.9206 41.795 38.935 41.8378 38.9638 41.8378C39.4246 41.8378 39.7846 41.8307 40.0438 41.8164L41.5342 41.795L43.0894 41.8164C43.3486 41.8307 43.7014 41.8378 44.1478 41.8378C44.1766 41.8378 44.191 41.795 44.191 41.7094C44.191 41.6238 44.1766 41.581 44.1478 41.581C43.5862 41.581 43.1758 41.5453 42.9166 41.4739C42.6574 41.4026 42.4774 41.267 42.3766 41.0672C42.2902 40.8532 42.247 40.5321 42.247 40.104V35.0951H50.5414V40.104C50.5414 40.5321 50.491 40.8532 50.3902 41.0672C50.3038 41.267 50.131 41.4026 49.8718 41.4739C49.6126 41.5453 49.2022 41.581 48.6406 41.581C48.5974 41.581 48.5758 41.6238 48.5758 41.7094C48.5758 41.795 48.5974 41.8378 48.6406 41.8378C49.0726 41.8378 49.411 41.8307 49.6558 41.8164L51.2542 41.795L52.7446 41.8164C53.0038 41.8307 53.3566 41.8378 53.803 41.8378C53.8462 41.8378 53.8678 41.795 53.8678 41.7094Z" fill="#A87B62"/>
<path d="M16.1262 12.1191L15.7435 11.1952L15.3608 11.3537L15.2023 11.7364L16.1262 12.1191ZM39 2.64444L39.3827 1.72057L39 1.56205L38.6173 1.72057L39 2.64444ZM61.8738 12.1191L62.7977 11.7364L62.6392 11.3537L62.2565 11.1952L61.8738 12.1191ZM71.3514 35L72.2753 35.3827L72.4338 35L72.2753 34.6173L71.3514 35ZM61.8738 57.8809L62.2565 58.8048L62.6392 58.6463L62.7977 58.2636L61.8738 57.8809ZM39 67.3556L38.6173 68.2794L39 68.438L39.3827 68.2794L39 67.3556ZM16.1262 57.8809L15.2023 58.2636L15.3608 58.6463L15.7435 58.8048L16.1262 57.8809ZM6.64858 35L5.7247 34.6173L5.56619 35L5.7247 35.3827L6.64858 35ZM39 2L39.3827 1.07612L39 0.917608L38.6173 1.07612L39 2ZM62.3345 11.6655L63.2584 11.2828L63.0999 10.9001L62.7172 10.7416L62.3345 11.6655ZM72 35L72.9239 35.3827L73.0824 35L72.9239 34.6173L72 35ZM62.3345 58.3345L62.7172 59.2584L63.0999 59.0999L63.2584 58.7172L62.3345 58.3345ZM39 68L38.6173 68.9239L39 69.0824L39.3827 68.9239L39 68ZM15.6655 58.3345L14.7416 58.7172L14.9001 59.0999L15.2828 59.2584L15.6655 58.3345ZM6 35L5.07612 34.6173L4.91761 35L5.07612 35.3827L6 35ZM15.6655 11.6655L15.2828 10.7416L14.9001 10.9001L14.7416 11.2828L15.6655 11.6655ZM34.5672 28.4166L34.3641 29.3958L34.3641 29.3958L34.5672 28.4166ZM28.26 29.0802L27.829 28.1778L27.8248 28.1799L28.26 29.0802ZM25.4736 31.499L26.3087 32.0491L26.3122 32.0438L25.4736 31.499ZM25.452 38.7341L26.3023 38.2078L26.3023 38.2078L25.452 38.7341ZM28.2168 41.2385L27.7642 42.1302L27.7706 42.1335L27.7771 42.1366L28.2168 41.2385ZM36.6408 41.1529L37.0709 42.0556L37.1339 42.0257L37.192 41.9872L36.6408 41.1529ZM36.8136 41.003L37.6433 41.5612L37.6433 41.5612L36.8136 41.003ZM36.8784 40.6819L35.8826 40.5906L35.8819 40.5982L36.8784 40.6819ZM37.0944 38.3274L38.0902 38.4187L38.0944 38.3731V38.3274H37.0944ZM36.8352 38.3059L37.7842 38.6213L37.8352 38.4677V38.3059H36.8352ZM35.1504 40.9174L35.7641 41.707L35.7641 41.707L35.1504 40.9174ZM29.1888 40.8746L28.6495 41.7168L28.6554 41.7204L29.1888 40.8746ZM26.9424 38.4344L26.0571 38.8994L26.061 38.9067L26.0649 38.914L26.9424 38.4344ZM26.8776 31.6061L27.7651 32.067L27.7678 32.0617L26.8776 31.6061ZM29.016 29.3371L28.5189 28.4694L28.5189 28.4694L29.016 29.3371ZM36.6624 32.1198L35.6989 32.3876L35.7061 32.4133L35.7146 32.4386L36.6624 32.1198ZM36.792 32.184V33.184H36.874L36.955 33.1706L36.792 32.184ZM36.9216 32.0984H37.9216V32.0476L37.9165 31.9971L36.9216 32.0984ZM36.6624 29.5511L37.6573 29.4499L37.654 29.4174L37.6485 29.3853L36.6624 29.5511ZM36.5976 29.2301L35.6498 29.5488L35.6498 29.5489L36.5976 29.2301ZM36.4248 29.0802L36.9176 28.2101L36.8975 28.1987L36.877 28.1883L36.4248 29.0802ZM52.5934 41.4739L52.8588 40.5098L52.8588 40.5098L52.5934 41.4739ZM52.0534 41.0672L51.1261 41.4416L51.1418 41.4803L51.1606 41.5177L52.0534 41.0672ZM52.0534 29.2515L51.1606 28.801L51.1473 28.8274L51.1356 28.8545L52.0534 29.2515ZM52.5934 28.8448L52.8588 29.8089L52.8831 29.8022L52.9071 29.7943L52.5934 28.8448ZM53.803 28.4595V27.4595H53.7929L53.7828 27.4597L53.803 28.4595ZM52.7446 28.4809L52.7244 27.4811L52.7109 27.4813L52.6975 27.482L52.7446 28.4809ZM49.6558 28.4809L49.7008 27.4819L49.6889 27.4813L49.6769 27.4811L49.6558 28.4809ZM48.6406 28.4595L48.6617 27.4597L48.6512 27.4595H48.6406V28.4595ZM49.8718 28.8448L50.1855 27.8952L50.1855 27.8952L49.8718 28.8448ZM50.3902 29.2943L49.4629 29.6686L49.4786 29.7074L49.4974 29.7447L50.3902 29.2943ZM50.5414 34.6456V35.6456H51.5414V34.6456H50.5414ZM42.247 34.6456H41.247V35.6456H42.247V34.6456ZM42.3766 29.2943L41.4719 28.8682L41.4651 28.8827L41.4588 28.8973L42.3766 29.2943ZM42.9166 28.8448L42.618 27.8904L42.6104 27.8927L42.6029 27.8952L42.9166 28.8448ZM44.1478 28.4595V27.4595H44.1375L44.1272 27.4597L44.1478 28.4595ZM43.111 28.4809L43.0904 27.4811L43.0782 27.4813L43.066 27.4819L43.111 28.4809ZM40.087 28.4809L40.1341 27.482L40.1203 27.4813L40.1064 27.4811L40.087 28.4809ZM38.9854 28.4595L39.0048 27.4596L38.9951 27.4595H38.9854V28.4595ZM40.195 28.8448L39.8814 29.7943L39.9053 29.8022L39.9296 29.8089L40.195 28.8448ZM40.7134 29.2515L39.7956 29.6484L39.8073 29.6755L39.8206 29.7019L40.7134 29.2515ZM40.7134 41.0672L39.8087 40.6412L39.8019 40.6557L39.7956 40.6703L40.7134 41.0672ZM40.1734 41.4739L39.921 40.5062L39.908 40.5098L40.1734 41.4739ZM40.0438 41.8164L40.0295 40.8165L40.0091 40.8168L39.9888 40.8179L40.0438 41.8164ZM41.5342 41.795L41.548 40.7951L41.5339 40.7949L41.5199 40.7951L41.5342 41.795ZM43.0894 41.8164L43.1444 40.8179L43.1238 40.8168L43.1032 40.8165L43.0894 41.8164ZM42.9166 41.4739L43.182 40.5098L43.182 40.5098L42.9166 41.4739ZM42.3766 41.0672L41.4493 41.4416L41.465 41.4803L41.4838 41.5177L42.3766 41.0672ZM42.247 35.0951V34.0951H41.247V35.0951H42.247ZM50.5414 35.0951H51.5414V34.0951H50.5414V35.0951ZM50.3902 41.0672L49.4855 40.6412L49.4787 40.6557L49.4724 40.6703L50.3902 41.0672ZM49.8718 41.4739L49.6064 40.5098L49.6064 40.5098L49.8718 41.4739ZM49.6558 41.8164L49.6424 40.8165L49.62 40.8168L49.5976 40.8181L49.6558 41.8164ZM51.2542 41.795L51.2686 40.7951L51.2547 40.7949L51.2408 40.7951L51.2542 41.795ZM52.7446 41.8164L52.7996 40.8179L52.7793 40.8168L52.759 40.8165L52.7446 41.8164ZM16.5088 13.043L39.3827 3.56832L38.6173 1.72057L15.7435 11.1952L16.5088 13.043ZM38.6173 3.56832L61.4911 13.043L62.2565 11.1952L39.3827 1.72057L38.6173 3.56832ZM60.95 12.5018L70.4275 35.3827L72.2753 34.6173L62.7977 11.7364L60.95 12.5018ZM70.4275 34.6173L60.95 57.4982L62.7977 58.2636L72.2753 35.3827L70.4275 34.6173ZM61.4911 56.957L38.6173 66.4317L39.3827 68.2794L62.2565 58.8048L61.4911 56.957ZM39.3827 66.4317L16.5088 56.957L15.7435 58.8048L38.6173 68.2794L39.3827 66.4317ZM17.05 57.4982L7.57246 34.6173L5.7247 35.3827L15.2023 58.2636L17.05 57.4982ZM7.57246 35.3827L17.05 12.5018L15.2023 11.7364L5.7247 34.6173L7.57246 35.3827ZM38.6173 2.92388L61.9518 12.5894L62.7172 10.7416L39.3827 1.07612L38.6173 2.92388ZM61.4106 12.0482L71.0761 35.3827L72.9239 34.6173L63.2584 11.2828L61.4106 12.0482ZM71.0761 34.6173L61.4106 57.9518L63.2584 58.7172L72.9239 35.3827L71.0761 34.6173ZM61.9518 57.4107L38.6173 67.0761L39.3827 68.9239L62.7172 59.2584L61.9518 57.4107ZM39.3827 67.0761L16.0482 57.4107L15.2828 59.2584L38.6173 68.9239L39.3827 67.0761ZM16.5894 57.9518L6.92388 34.6173L5.07612 35.3827L14.7416 58.7172L16.5894 57.9518ZM6.92388 35.3827L16.5894 12.0482L14.7416 11.2828L5.07612 34.6173L6.92388 35.3827ZM16.0482 12.5894L39.3827 2.92388L38.6173 1.07612L15.2828 10.7416L16.0482 12.5894ZM34.7703 27.4375C34.0624 27.2907 33.2263 27.224 32.2776 27.224V29.224C33.1433 29.224 33.8336 29.2858 34.3641 29.3958L34.7703 27.4375ZM32.2776 27.224C30.6633 27.224 29.1742 27.5354 27.829 28.1778L28.691 29.9826C29.7362 29.4834 30.9255 29.224 32.2776 29.224V27.224ZM27.8248 28.1799C26.4892 28.8255 25.4169 29.7507 24.635 30.9542L26.3122 32.0438C26.8839 31.1639 27.6692 30.4765 28.6952 29.9805L27.8248 28.1799ZM24.6385 30.9489C23.8444 32.1544 23.4584 33.5338 23.4584 35.0523H25.4584C25.4584 33.8881 25.7492 32.8986 26.3087 32.0491L24.6385 30.9489ZM23.4584 35.0523C23.4584 36.6033 23.8318 38.0164 24.6017 39.2603L26.3023 38.2078C25.7474 37.3112 25.4584 36.2698 25.4584 35.0523H23.4584ZM24.6017 39.2603C25.3657 40.4949 26.4287 41.4523 27.7642 42.1302L28.6694 40.3468C27.6433 39.8259 26.8631 39.1138 26.3023 38.2078L24.6017 39.2603ZM27.7771 42.1366C29.1268 42.7973 30.6341 43.1161 32.2776 43.1161V41.1161C30.8971 41.1161 29.6972 40.8498 28.6565 40.3403L27.7771 42.1366ZM32.2776 43.1161C32.3243 43.1161 32.3584 43.1166 32.3823 43.1173C32.408 43.118 32.4144 43.1187 32.4082 43.1182C32.405 43.1179 32.3916 43.1167 32.3716 43.1137C32.3567 43.1114 32.3095 43.1041 32.2484 43.0856C32.2177 43.0763 32.1632 43.0583 32.0988 43.0264C32.0655 43.0099 32.0219 42.986 31.9738 42.9526C31.9265 42.9197 31.8642 42.8704 31.8014 42.8004C31.7379 42.7298 31.666 42.6294 31.6142 42.4964C31.5605 42.3587 31.5358 42.2047 31.5499 42.0456C31.5638 41.8899 31.612 41.7594 31.6661 41.6595C31.7188 41.5619 31.7789 41.4896 31.8266 41.4404C31.8749 41.3906 31.9205 41.3539 31.9555 41.3285C31.9911 41.3026 32.0232 41.2829 32.0484 41.2686C32.0973 41.2408 32.1389 41.2229 32.1641 41.2128C32.2136 41.1928 32.2525 41.1822 32.2672 41.1783C32.2856 41.1734 32.2989 41.1706 32.3045 41.1694C32.3109 41.1681 32.3145 41.1676 32.3146 41.1675C32.3149 41.1675 32.3135 41.1677 32.3103 41.1682C32.3071 41.1686 32.3028 41.1692 32.2974 41.1699C32.2865 41.1713 32.2731 41.1727 32.2583 41.1741C32.2271 41.1771 32.1996 41.1788 32.183 41.1794C32.1745 41.1797 32.1762 41.1794 32.1857 41.1796C32.1907 41.1798 32.2023 41.1801 32.2186 41.1814C32.2326 41.1825 32.2645 41.1854 32.3064 41.1931C32.3279 41.1971 32.3599 41.2039 32.3983 41.2151C32.4341 41.2256 32.4945 41.2454 32.5649 41.2811C32.6013 41.2995 32.6472 41.3255 32.6971 41.3616C32.7467 41.3973 32.8077 41.4484 32.8682 41.5185C32.9294 41.5896 32.9932 41.6841 33.0403 41.8036C33.0884 41.9256 33.1131 42.0588 33.1094 42.1957C33.1022 42.4681 32.9879 42.6643 32.9092 42.7687C32.868 42.8233 32.8273 42.8655 32.7944 42.8962C32.7611 42.9273 32.7303 42.9517 32.7054 42.97C32.6569 43.0056 32.6148 43.0296 32.5883 43.0436C32.5604 43.0584 32.5369 43.0691 32.5209 43.076C32.4898 43.0894 32.4666 43.0971 32.4581 43.0998C32.448 43.1031 32.4427 43.1046 32.444 43.1042C32.4472 43.1033 32.4618 43.0995 32.4927 43.0927L32.0625 41.1395C32.0124 41.1506 31.9628 41.1623 31.9163 41.1751C31.8928 41.1815 31.8662 41.1892 31.8383 41.1983C31.812 41.2069 31.7744 41.2199 31.7319 41.2382C31.7102 41.2475 31.6818 41.2605 31.6497 41.2775C31.6191 41.2938 31.5735 41.3199 31.5223 41.3575C31.496 41.3767 31.4641 41.4021 31.4298 41.4341C31.3958 41.4658 31.3543 41.5089 31.3124 41.5644C31.2323 41.6706 31.1174 41.8685 31.1101 42.1425C31.1065 42.2802 31.1312 42.4141 31.1796 42.5369C31.227 42.6571 31.2913 42.7523 31.3531 42.8241C31.4142 42.895 31.476 42.9467 31.5264 42.9831C31.5772 43.0198 31.6241 43.0465 31.6617 43.0655C31.7345 43.1023 31.7978 43.1233 31.8371 43.1348C31.879 43.147 31.915 43.1547 31.941 43.1595C31.9919 43.1689 32.0348 43.1731 32.0616 43.1752C32.0906 43.1775 32.1166 43.1786 32.1375 43.1791C32.1788 43.1801 32.2181 43.1794 32.2507 43.1783C32.3165 43.176 32.3857 43.1711 32.4481 43.1651C32.5089 43.1593 32.5794 43.1511 32.6456 43.1399C32.6762 43.1348 32.7255 43.1259 32.7799 43.1114C32.8058 43.1046 32.854 43.091 32.9107 43.0681C32.9395 43.0566 32.9841 43.0372 33.0356 43.008C33.062 42.993 33.0953 42.9726 33.1318 42.946C33.1678 42.9198 33.2143 42.8824 33.2632 42.832C33.3115 42.782 33.3722 42.7091 33.4253 42.6108C33.4797 42.5102 33.5282 42.3791 33.5421 42.2226C33.5563 42.0628 33.5315 41.9082 33.4776 41.7699C33.4254 41.6362 33.3531 41.5351 33.2891 41.4638C33.2256 41.3932 33.1627 41.3432 33.1144 41.3097C33.0653 41.2756 33.0207 41.2511 32.9861 41.234C32.9191 41.2008 32.8614 41.1815 32.8267 41.171C32.7577 41.1502 32.6996 41.1406 32.6706 41.1362C32.6365 41.131 32.6057 41.1278 32.5817 41.1257C32.5339 41.1216 32.4847 41.1194 32.4387 41.1181C32.3909 41.1167 32.3371 41.1161 32.2776 41.1161V43.1161ZM32.4882 43.0937C32.8188 43.0225 33.6437 42.8864 34.6183 42.6963C35.0815 42.6059 35.559 42.5066 35.9737 42.4052C36.3616 42.3104 36.7797 42.1944 37.0709 42.0556L36.2107 40.2501C36.1276 40.2897 35.8958 40.3654 35.4989 40.4624C35.1288 40.5528 34.6865 40.6452 34.2353 40.7333C33.3811 40.8999 32.3988 41.0671 32.067 41.1385L32.4882 43.0937ZM37.192 41.9872C37.3001 41.9158 37.4986 41.7763 37.6433 41.5612L35.9839 40.4448C36.0118 40.4034 36.0376 40.3735 36.0549 40.3549C36.0725 40.3359 36.0864 40.3234 36.0937 40.3171C36.107 40.3055 36.1084 40.3061 36.0896 40.3185L37.192 41.9872ZM37.6433 41.5612C37.7754 41.3648 37.8174 41.1591 37.8316 41.0885C37.8531 40.9823 37.8661 40.8706 37.8749 40.7657L35.8819 40.5982C35.8793 40.6293 35.8767 40.6529 35.8745 40.67C35.8722 40.6877 35.8708 40.6945 35.8712 40.6928C35.8714 40.6917 35.8724 40.6867 35.8745 40.6787C35.8765 40.6708 35.8802 40.6575 35.886 40.6401C35.8918 40.6231 35.901 40.5978 35.9151 40.5671C35.9289 40.5371 35.9508 40.494 35.9839 40.4449L37.6433 41.5612ZM37.8742 40.7733L38.0902 38.4187L36.0986 38.236L35.8826 40.5906L37.8742 40.7733ZM38.0944 38.3274C38.0944 38.1045 38.0232 37.8751 37.8716 37.6819C37.7315 37.5034 37.5645 37.4085 37.4475 37.3588C37.2345 37.2683 37.034 37.2631 36.9432 37.2631V39.2631C36.9354 39.2631 36.9087 39.2629 36.8692 39.2573C36.8329 39.2521 36.7578 39.2387 36.6657 39.1996C36.5739 39.1606 36.4258 39.0791 36.2983 38.9166C36.1593 38.7395 36.0944 38.5288 36.0944 38.3274H38.0944ZM36.9432 37.2631C36.8705 37.2631 36.6904 37.2662 36.4937 37.3442C36.3869 37.3865 36.2207 37.4722 36.0766 37.6436C35.9172 37.8332 35.8352 38.0686 35.8352 38.3059H37.8352C37.8352 38.529 37.7577 38.7519 37.6073 38.9308C37.4722 39.0915 37.3195 39.1683 37.2307 39.2035C37.07 39.2672 36.9439 39.2631 36.9432 39.2631V37.2631ZM35.8862 37.9906C35.5398 39.0331 35.0715 39.7122 34.5367 40.1279L35.7641 41.707C36.6982 40.981 37.353 39.9191 37.7842 38.6213L35.8862 37.9906ZM34.5367 40.1279C34.0204 40.5292 33.2969 40.7736 32.2776 40.7736V42.7736C33.6199 42.7736 34.8116 42.4473 35.7641 41.707L34.5367 40.1279ZM32.2776 40.7736C31.3602 40.7736 30.5152 40.5288 29.7222 40.0287L28.6554 41.7204C29.7632 42.4191 30.9774 42.7736 32.2776 42.7736V40.7736ZM29.7281 40.0325C28.9411 39.5285 28.3054 38.8431 27.8199 37.9548L26.0649 38.914C26.7026 40.0806 27.5645 41.022 28.6495 41.7167L29.7281 40.0325ZM27.8277 37.9694C27.36 37.079 27.1216 36.0982 27.1216 35.0095H25.1216C25.1216 36.4038 25.4304 37.7063 26.0571 38.8994L27.8277 37.9694ZM27.1216 35.0095C27.1216 33.8414 27.3477 32.8706 27.765 32.067L25.9902 31.1451C25.3995 32.2823 25.1216 33.5804 25.1216 35.0095H27.1216ZM27.7678 32.0617C28.1873 31.242 28.7669 30.6323 29.5131 30.2048L28.5189 28.4694C27.4219 29.0979 26.5759 30.0008 25.9874 31.1504L27.7678 32.0617ZM29.5131 30.2048C30.2634 29.7749 31.153 29.5451 32.2128 29.5451V27.5451C30.8534 27.5451 29.6118 27.8432 28.5189 28.4694L29.5131 30.2048ZM32.2128 29.5451C33.1867 29.5451 33.8981 29.7935 34.4269 30.2183C34.9625 30.6486 35.407 31.3374 35.6989 32.3876L37.6259 31.852C37.2554 30.5191 36.6271 29.4205 35.6795 28.6592C34.7251 27.8924 33.5429 27.5451 32.2128 27.5451V29.5451ZM35.7146 32.4386C35.9412 33.1124 36.5875 33.184 36.792 33.184V31.184C36.8404 31.184 36.982 31.1889 37.1496 31.2719C37.3481 31.3703 37.5267 31.5525 37.6102 31.801L35.7146 32.4386ZM36.955 33.1706C37.0539 33.1543 37.2473 33.1138 37.4404 32.9863C37.6748 32.8314 37.9216 32.5291 37.9216 32.0984H35.9216C35.9216 31.9315 35.9663 31.7614 36.0581 31.6098C36.1456 31.4653 36.2543 31.3728 36.338 31.3175C36.4879 31.2185 36.6165 31.1994 36.629 31.1974L36.955 33.1706ZM37.9165 31.9971L37.6573 29.4499L35.6675 29.6524L35.9267 32.1996L37.9165 31.9971ZM37.6485 29.3853C37.6243 29.2413 37.5906 29.0455 37.5454 28.9112L35.6498 29.5489C35.6397 29.5188 35.6357 29.5009 35.6374 29.5078C35.6382 29.5109 35.6405 29.521 35.6444 29.5403C35.6522 29.5789 35.6627 29.6366 35.6762 29.717L37.6485 29.3853ZM37.5454 28.9113C37.4546 28.6413 37.2804 28.4758 37.1987 28.405C37.1011 28.3203 36.9993 28.2563 36.9176 28.2101L35.932 29.9504C35.9511 29.9612 35.9285 29.9508 35.8885 29.916C35.8672 29.8975 35.8297 29.8626 35.7887 29.8098C35.7485 29.7579 35.6908 29.6709 35.6498 29.5488L37.5454 28.9113ZM36.877 28.1883C36.1866 27.8383 35.484 27.5855 34.7703 27.4375L34.3641 29.3958C34.8888 29.5046 35.4246 29.6943 35.9726 29.9721L36.877 28.1883ZM54.8678 41.7094C54.8678 41.6148 54.8612 41.3941 54.7444 41.1626C54.6788 41.0326 54.5665 40.8762 54.3826 40.7546C54.1929 40.6293 53.987 40.581 53.803 40.581V42.581C53.6407 42.581 53.4537 42.538 53.2801 42.4234C53.1124 42.3126 53.0136 42.1722 52.9588 42.0635C52.8636 41.8748 52.8678 41.7184 52.8678 41.7094H54.8678ZM53.803 40.581C53.273 40.581 52.982 40.5437 52.8588 40.5098L52.328 42.4381C52.7232 42.5469 53.2386 42.581 53.803 42.581V40.581ZM52.8588 40.5098C52.8278 40.5013 52.8376 40.4988 52.8656 40.52C52.8796 40.5305 52.8953 40.5448 52.9106 40.5631C52.9258 40.5813 52.9377 40.5999 52.9462 40.6168L51.1606 41.5177C51.414 42.02 51.8561 42.3082 52.328 42.4381L52.8588 40.5098ZM52.9807 40.6929C52.9807 40.693 52.9804 40.6921 52.9798 40.6903C52.9791 40.6886 52.9782 40.6859 52.9771 40.6824C52.9749 40.6753 52.972 40.665 52.9686 40.6513C52.9618 40.6233 52.9542 40.5843 52.9473 40.5325C52.9332 40.4276 52.9238 40.2867 52.9238 40.104H50.9238C50.9238 40.5698 50.9666 41.0464 51.1261 41.4416L52.9807 40.6929ZM52.9238 40.104V30.1933H50.9238V40.104H52.9238ZM52.9238 30.1933C52.9238 30.0102 52.9332 29.8724 52.9469 29.7731C52.9612 29.669 52.9763 29.6367 52.9713 29.6484L51.1356 28.8545C50.9645 29.25 50.9238 29.7352 50.9238 30.1933H52.9238ZM52.9462 29.7019C52.9377 29.7188 52.9258 29.7374 52.9106 29.7556C52.8953 29.7739 52.8796 29.7882 52.8656 29.7987C52.8376 29.8199 52.8278 29.8174 52.8588 29.8089L52.328 27.8806C51.8561 28.0105 51.414 28.2987 51.1606 28.801L52.9462 29.7019ZM52.9071 29.7943C53.0077 29.7611 53.2777 29.7163 53.803 29.7163V27.7163C53.2339 27.7163 52.6975 27.7572 52.2797 27.8952L52.9071 29.7943ZM53.803 29.7163C53.987 29.7163 54.1929 29.668 54.3826 29.5426C54.5665 29.4211 54.6788 29.2647 54.7444 29.1347C54.8612 28.9032 54.8678 28.6825 54.8678 28.5879H52.8678C52.8678 28.5789 52.8636 28.4225 52.9588 28.2338C53.0136 28.1252 53.1124 27.9848 53.2801 27.874C53.4536 27.7593 53.6407 27.7163 53.803 27.7163V29.7163ZM54.8678 28.5879C54.8678 28.4933 54.8612 28.2726 54.7444 28.0411C54.6788 27.9111 54.5665 27.7546 54.3826 27.6331C54.1929 27.5078 53.9869 27.4595 53.803 27.4595V29.4595C53.6407 29.4595 53.4537 29.4165 53.2801 29.3018C53.1124 29.191 53.0136 29.0507 52.9588 28.942C52.8636 28.7533 52.8678 28.5968 52.8678 28.5879H54.8678ZM53.7828 27.4597L52.7244 27.4811L52.7648 29.4807L53.8232 29.4593L53.7828 27.4597ZM52.6975 27.482C52.1008 27.5101 51.6212 27.5237 51.2542 27.5237V29.5237C51.6648 29.5237 52.1788 29.5087 52.7918 29.4798L52.6975 27.482ZM51.2542 27.5237C50.8424 27.5237 50.3256 27.51 49.7008 27.4819L49.6108 29.4799C50.2532 29.5088 50.8021 29.5237 51.2542 29.5237V27.5237ZM49.6769 27.4811L48.6617 27.4597L48.6195 29.4592L49.6347 29.4806L49.6769 27.4811ZM48.6406 27.4595C48.4567 27.4595 48.2508 27.5078 48.0611 27.6331C47.8772 27.7546 47.7649 27.911 47.6992 28.0411C47.5824 28.2726 47.5758 28.4933 47.5758 28.5879H49.5758C49.5758 28.5968 49.58 28.7534 49.4848 28.9421C49.43 29.0507 49.3312 29.1911 49.1634 29.3019C48.9899 29.4165 48.8029 29.4595 48.6406 29.4595V27.4595ZM47.5758 28.5879C47.5758 28.6825 47.5824 28.9032 47.6992 29.1347C47.7648 29.2647 47.8772 29.4212 48.0611 29.5427C48.2508 29.668 48.4567 29.7163 48.6406 29.7163V27.7163C48.8029 27.7163 48.9899 27.7593 49.1635 27.8739C49.3312 27.9847 49.43 28.1251 49.4848 28.2337C49.58 28.4224 49.5758 28.5789 49.5758 28.5879H47.5758ZM48.6406 29.7163C49.1836 29.7163 49.4591 29.7616 49.5582 29.7943L50.1855 27.8952C49.7661 27.7567 49.2208 27.7163 48.6406 27.7163V29.7163ZM49.5581 29.7943C49.586 29.8035 49.5715 29.8036 49.5407 29.7769C49.5254 29.7636 49.5094 29.7465 49.4947 29.7259C49.4801 29.7054 49.4697 29.6854 49.4629 29.6686L51.3175 28.92C51.1007 28.3827 50.6675 28.0545 50.1855 27.8952L49.5581 29.7943ZM49.4974 29.7447C49.4865 29.7231 49.5011 29.7436 49.5163 29.8381C49.5307 29.9282 49.5414 30.0582 49.5414 30.2361H51.5414C51.5414 29.7695 51.493 29.2601 51.283 28.8438L49.4974 29.7447ZM49.5414 30.2361V34.6456H51.5414V30.2361H49.5414ZM50.5414 33.6456H42.247V35.6456H50.5414V33.6456ZM43.247 34.6456V30.2361H41.247V34.6456H43.247ZM43.247 30.2361C43.247 30.053 43.2564 29.9152 43.2701 29.8159C43.2844 29.7118 43.2995 29.6795 43.2945 29.6912L41.4588 28.8973C41.2877 29.2928 41.247 29.778 41.247 30.2361H43.247ZM43.2813 29.7203C43.2766 29.7304 43.2692 29.7431 43.2588 29.7567C43.2483 29.7702 43.2372 29.7814 43.227 29.7899C43.206 29.8073 43.2004 29.8042 43.2303 29.7943L42.6029 27.8952C42.127 28.0524 41.7079 28.3672 41.4719 28.8682L43.2813 29.7203ZM43.2153 29.7991C43.3404 29.76 43.6275 29.7163 44.1478 29.7163V27.7163C43.5737 27.7163 43.04 27.7583 42.618 27.8904L43.2153 29.7991ZM44.1478 29.7163C44.8212 29.7163 45.0752 29.1601 45.128 29.003C45.1882 28.8241 45.191 28.6602 45.191 28.5879H43.191C43.191 28.5832 43.1911 28.5633 43.1945 28.5327C43.1976 28.5056 43.206 28.4439 43.2324 28.3654C43.2563 28.2943 43.3169 28.1426 43.4628 27.998C43.6331 27.8293 43.8755 27.7163 44.1478 27.7163V29.7163ZM45.191 28.5879C45.191 28.5156 45.1882 28.3517 45.128 28.1728C45.0752 28.0156 44.8211 27.4595 44.1478 27.4595V29.4595C43.8755 29.4595 43.6331 29.3465 43.4628 29.1778C43.3169 29.0332 43.2563 28.8815 43.2324 28.8104C43.206 28.7318 43.1976 28.6702 43.1945 28.6431C43.1911 28.6125 43.191 28.5925 43.191 28.5879H45.191ZM44.1272 27.4597L43.0904 27.4811L43.1316 29.4807L44.1685 29.4592L44.1272 27.4597ZM43.066 27.4819C42.4406 27.51 41.9313 27.5237 41.5342 27.5237V29.5237C41.9724 29.5237 42.5142 29.5088 43.156 29.4799L43.066 27.4819ZM41.5342 27.5237C41.1969 27.5237 40.7322 27.5102 40.1341 27.482L40.0399 29.4798C40.6514 29.5086 41.1515 29.5237 41.5342 29.5237V27.5237ZM40.1064 27.4811L39.0048 27.4596L38.966 29.4593L40.0676 29.4807L40.1064 27.4811ZM38.9854 27.4595C38.3121 27.4595 38.0581 28.0155 38.0052 28.1727C37.945 28.3516 37.9422 28.5156 37.9422 28.5879H39.9422C39.9422 28.5926 39.9421 28.6125 39.9387 28.6431C39.9356 28.6702 39.9272 28.7319 39.9008 28.8104C39.8769 28.8815 39.8163 29.0332 39.6704 29.1778C39.5001 29.3465 39.2577 29.4595 38.9854 29.4595V27.4595ZM37.9422 28.5879C37.9422 28.6602 37.945 28.8241 38.0052 29.003C38.0581 29.1602 38.3121 29.7163 38.9854 29.7163V27.7163C39.2578 27.7163 39.5001 27.8293 39.6704 27.998C39.8163 28.1426 39.8769 28.2943 39.9008 28.3654C39.9272 28.4439 39.9356 28.5056 39.9387 28.5327C39.9421 28.5632 39.9422 28.5832 39.9422 28.5879H37.9422ZM38.9854 29.7163C39.5107 29.7163 39.7807 29.7611 39.8814 29.7943L40.5087 27.8952C40.0909 27.7572 39.5545 27.7163 38.9854 27.7163V29.7163ZM39.9296 29.8089C39.9592 29.817 39.9403 29.8169 39.9018 29.7867C39.8583 29.7526 39.8191 29.7029 39.7956 29.6484L41.6313 28.8545C41.3966 28.3118 40.9362 28.0116 40.4604 27.8806L39.9296 29.8089ZM39.8206 29.7019C39.8097 29.6803 39.8243 29.7008 39.8395 29.7953C39.8539 29.8854 39.8646 30.0154 39.8646 30.1933H41.8646C41.8646 29.7266 41.8162 29.2173 41.6062 28.801L39.8206 29.7019ZM39.8646 30.1933V40.104H41.8646V30.1933H39.8646ZM39.8646 40.104C39.8646 40.2814 39.854 40.4147 39.8389 40.5108C39.8234 40.6099 39.8067 40.6454 39.8087 40.6412L41.6181 41.4933C41.8137 41.0779 41.8646 40.5789 41.8646 40.104H39.8646ZM39.7956 40.6703C39.8082 40.641 39.8258 40.611 39.8481 40.583C39.8702 40.5552 39.8928 40.5344 39.912 40.52C39.9492 40.492 39.9626 40.4955 39.9211 40.5063L40.4258 42.4416C40.9004 42.3178 41.3878 42.0271 41.6313 41.4642L39.7956 40.6703ZM39.908 40.5098C39.7848 40.5437 39.4938 40.581 38.9638 40.581V42.581C39.5282 42.581 40.0436 42.5469 40.4388 42.4381L39.908 40.5098ZM38.9638 40.581C38.2904 40.581 38.0364 41.1372 37.9836 41.2943C37.9234 41.4732 37.9206 41.6371 37.9206 41.7094H39.9206C39.9206 41.7141 39.9205 41.7341 39.9171 41.7646C39.9141 41.7917 39.9056 41.8534 39.8792 41.9319C39.8553 42.003 39.7947 42.1547 39.6488 42.2993C39.4786 42.468 39.2362 42.581 38.9638 42.581V40.581ZM37.9206 41.7094C37.9206 41.7817 37.9234 41.9457 37.9836 42.1245C38.0364 42.2816 38.2904 42.8378 38.9638 42.8378V40.8378C39.2362 40.8378 39.4786 40.9508 39.6488 41.1195C39.7947 41.2641 39.8553 41.4158 39.8792 41.4869C39.9056 41.5654 39.9141 41.6271 39.9171 41.6542C39.9205 41.6848 39.9206 41.7047 39.9206 41.7094H37.9206ZM38.9638 42.8378C39.4313 42.8378 39.8125 42.8307 40.0988 42.8149L39.9888 40.8179C39.7567 40.8307 39.4179 40.8378 38.9638 40.8378V42.8378ZM40.0582 42.8163L41.5486 42.7949L41.5199 40.7951L40.0295 40.8165L40.0582 42.8163ZM41.5205 42.7949L43.0757 42.8163L43.1032 40.8165L41.548 40.7951L41.5205 42.7949ZM43.0344 42.8149C43.3204 42.8307 43.6941 42.8378 44.1478 42.8378V40.8378C43.7088 40.8378 43.3769 40.8307 43.1444 40.8179L43.0344 42.8149ZM44.1478 42.8378C44.8212 42.8378 45.0752 42.2817 45.128 42.1245C45.1882 41.9456 45.191 41.7817 45.191 41.7094H43.191C43.191 41.7048 43.1911 41.6848 43.1945 41.6542C43.1976 41.6271 43.206 41.5655 43.2324 41.4869C43.2563 41.4158 43.3169 41.2641 43.4628 41.1195C43.6331 40.9508 43.8755 40.8378 44.1478 40.8378V42.8378ZM45.191 41.7094C45.191 41.6371 45.1882 41.4732 45.128 41.2943C45.0752 41.1371 44.8212 40.581 44.1478 40.581V42.581C43.8755 42.581 43.6331 42.468 43.4628 42.2993C43.3169 42.1547 43.2563 42.003 43.2324 41.9319C43.206 41.8534 43.1976 41.7917 43.1945 41.7646C43.1911 41.734 43.191 41.7141 43.191 41.7094H45.191ZM44.1478 40.581C43.6006 40.581 43.3039 40.5434 43.182 40.5098L42.6512 42.4381C43.0477 42.5472 43.5718 42.581 44.1478 42.581V40.581ZM43.182 40.5098C43.151 40.5013 43.1608 40.4988 43.1888 40.52C43.2028 40.5305 43.2185 40.5448 43.2338 40.5631C43.249 40.5813 43.2609 40.5999 43.2694 40.6168L41.4838 41.5177C41.7373 42.02 42.1794 42.3082 42.6512 42.4381L43.182 40.5098ZM43.3039 40.6929C43.3039 40.693 43.3036 40.6921 43.303 40.6903C43.3023 40.6886 43.3014 40.686 43.3003 40.6824C43.2981 40.6753 43.2952 40.665 43.2918 40.6513C43.285 40.6233 43.2774 40.5843 43.2705 40.5326C43.2564 40.4276 43.247 40.2867 43.247 40.104H41.247C41.247 40.5697 41.2898 41.0464 41.4493 41.4416L43.3039 40.6929ZM43.247 40.104V35.0951H41.247V40.104H43.247ZM42.247 36.0951H50.5414V34.0951H42.247V36.0951ZM49.5414 35.0951V40.104H51.5414V35.0951H49.5414ZM49.5414 40.104C49.5414 40.2814 49.5308 40.4147 49.5157 40.5108C49.5002 40.6099 49.4835 40.6454 49.4855 40.6412L51.2949 41.4933C51.4905 41.0779 51.5414 40.5789 51.5414 40.104H49.5414ZM49.4724 40.6703C49.4959 40.6158 49.5351 40.5661 49.5786 40.532C49.6171 40.5018 49.636 40.5017 49.6064 40.5098L50.1372 42.4381C50.613 42.3071 51.0734 42.0069 51.3081 41.4642L49.4724 40.6703ZM49.6064 40.5098C49.4845 40.5434 49.1878 40.581 48.6406 40.581V42.581C49.2166 42.581 49.7407 42.5472 50.1372 42.4381L49.6064 40.5098ZM48.6406 40.581C48.4567 40.581 48.2508 40.6293 48.0611 40.7546C47.8772 40.8761 47.7649 41.0325 47.6992 41.1626C47.5824 41.3941 47.5758 41.6148 47.5758 41.7094H49.5758C49.5758 41.7184 49.58 41.8749 49.4848 42.0636C49.43 42.1722 49.3312 42.3126 49.1635 42.4234C48.9899 42.538 48.8029 42.581 48.6406 42.581V40.581ZM47.5758 41.7094C47.5758 41.804 47.5824 42.0247 47.6992 42.2562C47.7648 42.3863 47.8772 42.5427 48.0611 42.6642C48.2508 42.7895 48.4567 42.8378 48.6406 42.8378V40.8378C48.8029 40.8378 48.9899 40.8808 49.1635 40.9954C49.3312 41.1062 49.43 41.2466 49.4848 41.3552C49.58 41.5439 49.5758 41.7004 49.5758 41.7094H47.5758ZM48.6406 42.8378C49.0798 42.8378 49.4406 42.8307 49.714 42.8147L49.5976 40.8181C49.3814 40.8307 49.0654 40.8378 48.6406 40.8378V42.8378ZM49.6692 42.8163L51.2676 42.7949L51.2408 40.7951L49.6424 40.8165L49.6692 42.8163ZM51.2399 42.7949L52.7303 42.8163L52.759 40.8165L51.2686 40.7951L51.2399 42.7949ZM52.6896 42.8149C52.9756 42.8307 53.3493 42.8378 53.803 42.8378V40.8378C53.364 40.8378 53.0321 40.8307 52.7996 40.8179L52.6896 42.8149ZM53.803 42.8378C53.987 42.8378 54.1929 42.7895 54.3826 42.6642C54.5665 42.5427 54.6788 42.3862 54.7444 42.2562C54.8612 42.0247 54.8678 41.804 54.8678 41.7094H52.8678C52.8678 41.7005 52.8636 41.544 52.9588 41.3553C53.0136 41.2467 53.1124 41.1063 53.2801 40.9955C53.4537 40.8808 53.6407 40.8378 53.803 40.8378V42.8378Z" fill="black" mask="url(#path-1-outside-1_13_86)"/>
</g>
<defs>
<filter id="filter0_d_13_86" x="0.917725" y="0.917603" width="76.1646" height="76.1648" filterUnits="userSpaceOnUse" color-interpolation-filters="sRGB">
<feFlood flood-opacity="0" result="BackgroundImageFix"/>
<feColorMatrix in="SourceAlpha" type="matrix" values="0 0 0 0 0 0 0 0 0 0 0 0 0 0 0 0 0 0 127 0" result="hardAlpha"/>
<feOffset dy="4"/>
<feGaussianBlur stdDeviation="2"/>
<feComposite in2="hardAlpha" operator="out"/>
<feColorMatrix type="matrix" values="0 0 0 0 0 0 0 0 0 0 0 0 0 0 0 0 0 0 0.25 0"/>
<feBlend mode="normal" in2="BackgroundImageFix" result="effect1_dropShadow_13_86"/>
<feBlend mode="normal" in="SourceGraphic" in2="effect1_dropShadow_13_86" result="shape"/>
</filter>
</defs>
</svg>
