<svg width="22" height="22" viewBox="0 0 22 22" fill="none" xmlns="http://www.w3.org/2000/svg">
<g filter="url(#filter0_d_13_88)">
<path d="M15.0482 10.0737L18 13.0248L17.0248 14L14.0737 11.0482C12.9757 11.9285 11.6099 12.4072 10.2026 12.4052C6.77877 12.4052 4 9.62646 4 6.20262C4 2.77877 6.77877 0 10.2026 0C13.6265 0 16.4052 2.77877 16.4052 6.20262C16.4072 7.60993 15.9285 8.9757 15.0482 10.0737ZM13.6657 9.56237C14.5404 8.66291 15.0289 7.45722 15.0269 6.20262C15.0269 3.53687 12.8677 1.37836 10.2026 1.37836C7.53687 1.37836 5.37836 3.53687 5.37836 6.20262C5.37836 8.86768 7.53687 11.0269 10.2026 11.0269C11.4572 11.0289 12.6629 10.5404 13.5624 9.66575L13.6657 9.56237V9.56237Z" fill="black"/>
<path d="M15.5269 6.20262C15.5269 3.26068 13.1438 0.87836 10.2026 0.87836C7.26073 0.87836 4.87836 3.26073 4.87836 6.20262C4.87836 9.14364 7.26047 11.5267 10.2022 11.5269C11.5871 11.529 12.9181 10.9897 13.9109 10.0242L13.911 10.0242L13.9159 10.0193L14.0193 9.91592L13.6658 9.56239L14.0242 9.91095C14.9896 8.91815 15.5289 7.5874 15.5269 6.20262ZM15.5269 6.20262H15.0269L15.5269 6.20183C15.5269 6.20209 15.5269 6.20236 15.5269 6.20262ZM14.6581 9.76101L14.3779 10.1106L14.6947 10.4273L17.2929 13.0249L17.0249 13.2929L14.4273 10.6947L14.1106 10.3779L13.761 10.6581C12.7519 11.4671 11.4967 11.9071 10.2033 11.9052H10.2026C7.05492 11.9052 4.5 9.35032 4.5 6.20262C4.5 3.05492 7.05492 0.5 10.2026 0.5C13.3503 0.5 15.9052 3.05492 15.9052 6.20262L15.9052 6.20333C15.9071 7.49669 15.4671 8.75187 14.6581 9.76101Z" stroke="black"/>
</g>
<defs>
<filter id="filter0_d_13_88" x="0" y="0" width="22" height="22" filterUnits="userSpaceOnUse" color-interpolation-filters="sRGB">
<feFlood flood-opacity="0" result="BackgroundImageFix"/>
<feColorMatrix in="SourceAlpha" type="matrix" values="0 0 0 0 0 0 0 0 0 0 0 0 0 0 0 0 0 0 127 0" result="hardAlpha"/>
<feOffset dy="4"/>
<feGaussianBlur stdDeviation="2"/>
<feComposite in2="hardAlpha" operator="out"/>
<feColorMatrix type="matrix" values="0 0 0 0 0 0 0 0 0 0 0 0 0 0 0 0 0 0 0.25 0"/>
<feBlend mode="normal" in2="BackgroundImageFix" result="effect1_dropShadow_13_88"/>
<feBlend mode="normal" in="SourceGraphic" in2="effect1_dropShadow_13_88" result="shape"/>
</filter>
</defs>
</svg>
